# xmcd
#
# Track frame offsets:
#	150
#	20307
#	35062
#	52897
#	72497
#	91457
#	112457
#	129692
#	147805
#	165155
#	181980
#	200877
#	217997
#	237692
#	253127
#	273305
#	288885
#	303805
#	324440
#	342250
#
# Disc length: 4707
#
# Revision: 1
# Processed by: cddbd v1.5.1PL0 Copyright (c) Steve Scherf et al.
# Submitted via: MAGIX_Freedb v0.9beta0
# Normalized: r0:DSETVAR1
#
DISCID=32126114
DTITLE=Various Artist - 100% Black vol.6 cd1
DYEAR=2002
DGENRE=
TTITLE0=Toni Braxton - Unbreak My Heart (Album Version)
TTITLE1=Alicia Keys - Fallin'
TTITLE2=Destiny's Child - Emotion (Album Version)
TTITLE3=Santana Feat. Wycleaf Jean - Maria Maria
TTITLE4=P.Didy and The Bad Boy Familty Feat. Usher and Loon - I Need a Girl (Part One) (Radio Edit)
TTITLE5=TLC - Unpretty
TTITLE6=Will Smith - Gettin Jiggy Wit It
TTITLE7=Mary J Blige - Family Affair
TTITLE8=Shola Ama - You Might Need Somebody
TTITLE9=Blue - All Rise
TTITLE10=Monica - Angel Of Mine
TTITLE11=Jennifer Lopez - If You Have My Love (Radio Edit)
TTITLE12=Beverley Knight - Flavour Of The Old School (Radio Mix)
TTITLE13=Pink - There You Go (Album Version)
TTITLE14=Angie Stone - Brotha
TTITLE15=R Kelly - I Believe I Can Fly (Radio Edit)
TTITLE16=Wyclef Jean - Gone Till November
TTITLE17=Fugees - No Woman No Cry
TTITLE18=Macy Gray - I Try
TTITLE19=Confidential - Baby Love
EXTD=
EXTT0=
EXTT1=
EXTT2=
EXTT3=
EXTT4=
EXTT5=
EXTT6=
EXTT7=
EXTT8=
EXTT9=
EXTT10=
EXTT11=
EXTT12=
EXTT13=
EXTT14=
EXTT15=
EXTT16=
EXTT17=
EXTT18=
EXTT19=
PLAYORDER=
